<?xml version="1.0" encoding="UTF-8"?>
<svg id="Capa_2" data-name="Capa 2" xmlns="http://www.w3.org/2000/svg" viewBox="0 0 12.99 14.24">
  <g id="Capa_2-2" data-name="Capa 2">
    <polygon points="3.21 13.88 11.2 13.88 11.2 12.39 12.01 12.39 12.01 8.72 12.64 8.72 12.64 3.51 11.78 3.51 11.77 2.46 10.34 2.46 10.34 5.32 10.34 1.04 7.92 1.04 7.92 3.91 7.92 .36 5.53 .36 5.53 4.08 5.19 .86 3.21 1.04 3.21 7.35 3.21 6.75 3.21 3.89 .36 3.89 .36 9.6 1.78 9.6 1.78 11.03 2.32 11.03 2.32 12.45 3.21 12.45 3.21 13.88" style="fill: #fff; stroke: #000; stroke-miterlimit: 10; stroke-width: .71px;"/>
  </g>
</svg>