<?xml version="1.0" encoding="UTF-8"?>
<svg id="Capa_2" data-name="Capa 2" xmlns="http://www.w3.org/2000/svg" viewBox="0 0 12.56 18.06">
  <g id="Capa_2-2" data-name="Capa 2">
    <polygon points="4.35 17.73 11.03 17.73 11.03 15.72 11.58 15.72 11.58 13.71 12.23 13.71 12.23 7.03 10.22 6.94 10.22 9.09 10.22 5.69 7.93 5.69 7.93 8.36 7.93 4.35 5.68 4.35 5.68 8.36 5.68 .34 3.01 .37 3.01 9.7 3.01 7.03 1.67 7.03 .33 7.03 .33 10.37 1.12 10.37 1.12 11.46 1.7 11.46 1.7 13.71 3.01 13.71 3.01 16.39 4.35 16.39 4.35 17.73" style="fill: #fff; stroke: #000; stroke-miterlimit: 10; stroke-width: .67px;"/>
  </g>
</svg>